<svg width="20" height="20" viewBox="0 0 20 20" fill="none" xmlns="http://www.w3.org/2000/svg">
<path d="M18.1712 8.36788H17.5V8.33329H9.99999V11.6666H14.7096C14.0225 13.607 12.1762 15 9.99999 15C7.23874 15 4.99999 12.7612 4.99999 9.99996C4.99999 7.23871 7.23874 4.99996 9.99999 4.99996C11.2746 4.99996 12.4342 5.48079 13.3171 6.26621L15.6742 3.90913C14.1858 2.52204 12.195 1.66663 9.99999 1.66663C5.39791 1.66663 1.66666 5.39788 1.66666 9.99996C1.66666 14.602 5.39791 18.3333 9.99999 18.3333C14.6021 18.3333 18.3333 14.602 18.3333 9.99996C18.3333 9.44121 18.2758 8.89579 18.1712 8.36788Z" fill="#FFC107"/>
<path d="M2.62749 6.12121L5.3654 8.12913C6.10624 6.29496 7.9004 4.99996 9.99999 4.99996C11.2746 4.99996 12.4342 5.48079 13.3171 6.26621L15.6742 3.90913C14.1858 2.52204 12.195 1.66663 9.99999 1.66663C6.79915 1.66663 4.02332 3.47371 2.62749 6.12121Z" fill="#FF3D00"/>
<path d="M10 18.3333C12.1525 18.3333 14.1083 17.5095 15.5871 16.17L13.0079 13.9875C12.1432 14.6451 11.0865 15.0008 10 15C7.83251 15 5.99209 13.6179 5.29876 11.6891L2.58126 13.7829C3.96043 16.4816 6.76126 18.3333 10 18.3333Z" fill="#4CAF50"/>
<path d="M18.1713 8.36796H17.5V8.33337H10V11.6667H14.7096C14.3809 12.5902 13.7889 13.3972 13.0067 13.988L13.0079 13.9871L15.5871 16.1696C15.4046 16.3355 18.3333 14.1667 18.3333 10C18.3333 9.44129 18.2758 8.89587 18.1713 8.36796Z" fill="#1976D2"/>
</svg>
